<svg width="16" height="10" viewBox="0 0 23 17" fill="none" xmlns="http://www.w3.org/2000/svg"><path d="M22.1969 15.9096V3.00415C22.1969 2.69004 21.9416 2.43448 21.6273 2.43448H19.3161V0.788237C19.3161 0.4736 19.0611 0.218567 18.7465 0.218567H14.1669C13.8523 0.218567 13.5973 0.4736 13.5973 0.788237V2.43448H8.68018V0.788237C8.68018 0.4736 8.42514 0.218567 8.11051 0.218567H3.53099C3.21635 0.218567 2.96132 0.4736 2.96132 0.788237V2.43448H0.650461C0.336088 2.43448 0.0810547 2.69004 0.0810547 3.00415V15.9096C0.0810547 16.2242 0.336088 16.4792 0.650461 16.4792H21.6273C21.9416 16.4792 22.1969 16.2245 22.1969 15.9096ZM14.7366 1.35764H18.1768V2.43422H14.7366V1.35764ZM4.10066 1.35764H7.54083V2.43422H4.10066V1.35764ZM8.18409 9.94094H6.38989V11.7357C6.38989 12.0503 6.13459 12.3053 5.82048 12.3053C5.50611 12.3053 5.25081 12.0503 5.25081 11.7357V9.94094H3.45714C3.14277 9.94094 2.88747 9.68591 2.88747 9.3718C2.88747 9.05716 3.14277 8.80213 3.45714 8.80213H5.25081V7.00846C5.25081 6.69382 5.50611 6.43879 5.82048 6.43879C6.13459 6.43879 6.38989 6.69382 6.38989 7.00846V8.80213H8.18409C8.49846 8.80213 8.7535 9.05716 8.7535 9.3718C8.7535 9.68617 8.49873 9.94094 8.18409 9.94094ZM18.8206 9.94094H14.0934C13.779 9.94094 13.524 9.68591 13.524 9.3718C13.524 9.05716 13.779 8.80213 14.0934 8.80213H18.8206C19.1349 8.80213 19.39 9.05716 19.39 9.3718C19.39 9.68617 19.1352 9.94094 18.8206 9.94094Z" fill="#FFBF1F"></path></svg>